<svg width="201" height="91" viewBox="0 0 201 91" fill="none" xmlns="http://www.w3.org/2000/svg">
<path d="M113.563 81.4426C113.018 82.4691 110.172 82.7029 106.555 82.7029C102.939 82.7029 72.1624 76.1281 54.113 75.0174C41.1142 74.2175 15.2484 78.8023 9.4568 79.8701C8.8409 79.9837 8.28589 79.5097 8.28342 78.8834L8.00396 8.00394C8.00177 7.45012 8.45013 7 9.00395 7H190.855C191.408 7 191.856 7.44826 191.855 8.0009L191.802 66.9805C191.802 67.5018 191.41 67.936 190.892 67.9898C187.263 68.3662 173.844 70.0734 170.3 75.0174M113.563 81.4426C115.446 77.8962 116.501 72.983 112.885 72.5309C109.268 72.0788 110.596 78.9922 113.563 81.4426ZM113.563 81.4426C114.654 82.3444 125.573 84.4772 133.356 81.4426C141.14 78.4081 143.371 75.3603 150.503 72.1909C159.809 68.0549 166.914 70.1704 170.3 75.0174M170.3 75.0174C169.807 75.7051 168.604 77.0565 168.491 78.4081C168.265 81.1206 169.949 81.3466 170.526 81.3466C171.102 81.3466 172.56 80.4425 172.334 78.4081C172.183 77.0518 170.793 75.7238 170.3 75.0174Z" stroke="white"/>
<path d="M54.4754 32.5592C54.7828 32.9435 54.8212 33.2893 54.5138 33.6352L47.2894 41.974L53.8221 51.1581C54.0911 51.5424 54.0527 51.8883 53.7068 52.1957L49.7104 55.6926C49.5182 55.8463 49.2877 55.9231 49.0955 55.8463C48.865 55.8463 48.6728 55.6926 48.5575 55.5004L46.5209 52.3878C45.8676 51.3503 45.1759 50.3127 44.4458 49.2752C43.6004 48.1224 42.6781 46.9695 41.7559 45.8551V55.0777C41.7559 55.6157 41.5253 55.8463 41.0257 55.8847L35.9533 56C35.4922 56 35.1463 55.6542 35.1463 55.193C35.2232 50.6586 35.3769 46.0857 35.6075 41.5513C35.6843 39.9373 35.7612 38.2849 35.8765 36.671C35.8765 36.5172 35.9149 36.2483 35.9149 35.9408H35.9533L36.107 35.7871C36.107 35.7871 36.0686 35.7871 35.9149 35.7103L36.1454 32.9051C36.2223 31.9444 36.2607 31.0221 36.3376 30.0614C36.376 29.5619 36.645 29.3313 37.1446 29.3313H41.948C42.4476 29.3313 42.755 29.7156 42.755 30.1767L42.1786 37.2858L49.9794 29.216C50.2483 28.9086 50.7863 28.8702 51.0938 29.1776L54.4754 32.5592ZM51.6702 32.8666C51.747 32.8666 51.8239 32.8282 51.8239 32.7514L51.747 32.6745H51.478C51.3627 32.7514 51.4012 32.8282 51.5165 32.8666H51.6702ZM50.0562 33.2509C50.0562 33.2509 50.0946 33.2509 50.1331 33.2125C50.0562 33.2125 49.9794 33.2125 49.9794 33.2509C49.9794 33.2125 49.9794 33.2509 49.8641 33.3278H50.0178C50.0178 33.3278 50.0178 33.2893 50.0562 33.2509ZM49.2877 33.443C49.4029 33.4046 49.2877 33.3662 49.2108 33.3278C49.2108 33.3662 49.2108 33.4046 49.2492 33.4046C49.2877 33.4815 49.2877 33.4815 49.2877 33.443ZM50.7863 33.3278H50.7479L50.94 33.4046L50.9785 33.3662L50.7863 33.3278ZM50.8248 34.3269C50.94 34.3269 51.2475 34.25 51.2475 34.0963C51.2475 34.0579 51.1322 33.9042 50.9785 33.9042C50.8248 33.9042 50.5558 33.9426 50.5558 34.0963L50.5942 34.25C50.6711 34.2885 50.7095 34.3269 50.8248 34.3269ZM37.2598 34.3653V34.25C37.2214 34.25 37.1446 34.2116 37.1446 34.2116C37.1061 34.1732 37.0677 34.1732 37.0677 34.1732C36.9524 34.1732 36.914 34.2116 36.914 34.3269C36.914 34.3653 36.914 34.4037 36.9524 34.4037L37.0677 34.4806C37.0677 34.4422 37.1446 34.4037 37.2598 34.3653ZM50.9785 35.0186L51.0938 34.9417C51.0553 34.9417 51.0553 34.9417 51.0169 34.9033H50.8248C50.7863 34.9417 50.7479 34.9417 50.7479 35.0186H50.9785ZM51.8239 35.7487V35.6334C51.8239 35.6334 51.7854 35.6334 51.7086 35.5566C51.6702 35.5181 51.6317 35.5181 51.5933 35.5181C51.478 35.5181 51.2475 35.6334 51.209 35.6718V35.7871L51.4012 35.8256C51.4396 35.7871 51.5165 35.7871 51.5933 35.7871C51.6702 35.7871 51.747 35.7871 51.8239 35.7487ZM48.6344 35.7487C48.6728 35.7487 48.7497 35.7103 48.7497 35.6718H48.5575C48.5191 35.6718 48.4807 35.6718 48.4423 35.6334C48.4423 35.7103 48.4038 35.7103 48.4423 35.7487V35.8256C48.4807 35.7871 48.5575 35.7487 48.6344 35.7487ZM45.0222 36.0177L45.1375 35.9408C45.0991 35.9408 45.0991 35.9024 45.0606 35.864C45.0222 35.7487 44.9838 35.7487 44.9069 35.7871H44.8301C44.8685 35.9408 44.9454 36.0177 45.0222 36.0177ZM46.0597 36.0177V36.2098H46.3287C46.3287 36.1714 46.3672 36.133 46.4056 36.0945C46.444 36.0561 46.444 36.0177 46.4056 36.0177H46.0597ZM45.6755 37.0168V36.8247C45.5986 36.8247 45.5986 36.8247 45.5602 36.7862H45.4449C45.4449 36.8247 45.4065 36.8247 45.4065 36.8631C45.3681 36.8631 45.3681 36.9015 45.3681 36.94C45.3681 37.0168 45.4065 37.0552 45.4833 37.0937C45.5986 37.0552 45.637 37.0168 45.6755 37.0168ZM44.9838 38.0543V37.9006H44.8685C44.8301 37.9006 44.8301 37.8622 44.8301 37.8622L44.7148 37.9391C44.7532 38.0159 44.7916 38.0543 44.8301 38.0928H44.9069C44.9454 38.0928 44.9838 38.0543 44.9838 38.0543ZM46.4825 40.9364V41.1286H46.713C46.713 41.0133 46.6362 40.9364 46.4825 40.9364ZM47.52 42.4735H47.1357L47.2894 42.7425C47.4431 42.7041 47.52 42.6272 47.52 42.4735ZM39.7576 45.2403C39.9498 45.2403 40.2956 45.0097 40.2956 44.7792C40.2956 44.6639 39.9113 44.5486 39.8345 44.5486C39.6424 44.5486 39.3734 44.856 39.3734 44.9713L39.4502 45.125C39.4886 45.2019 39.6039 45.2403 39.7576 45.2403ZM46.3672 45.0866C46.5209 45.0482 46.5977 44.9713 46.5977 44.8176H46.444C46.3672 44.8176 46.2903 44.856 46.2519 44.856L46.3672 45.0866ZM46.7514 46.0088C46.6746 46.0857 46.6746 46.1626 46.7514 46.2394L47.0589 46.0857L46.982 45.932L46.7514 46.0088ZM47.2126 46.1241L47.3663 46.0857L47.2126 45.932L47.0589 46.0088L47.2126 46.1241ZM48.4423 46.8927C48.3654 46.9311 48.3654 47.008 48.4423 47.0464C48.5191 47.277 49.0955 47.2385 49.0187 46.9695L48.9802 46.9311C48.9802 46.9311 48.9418 46.9311 48.9034 46.8927C48.865 46.8543 48.8265 46.8543 48.8265 46.8543C48.8265 46.8158 48.7881 46.8158 48.7112 46.7774L48.4807 46.8543L48.4423 46.8927ZM48.6344 48.0071L48.4807 48.0839L48.6344 48.2376L48.7881 48.1992L48.6344 48.0071ZM39.6808 48.4682V48.2376H39.4502L39.3734 48.4298H39.5271C39.5655 48.4682 39.6039 48.4682 39.6808 48.4682ZM49.8641 48.9293C49.7104 48.9293 49.6335 49.0062 49.6335 49.1983H49.7488C49.9025 49.1983 50.0178 49.083 49.8641 48.9293ZM45.9445 49.1983H46.0213L45.9829 49.083H45.906L45.9445 49.1983ZM50.1331 49.1983C50.0946 49.2752 50.1331 49.3136 50.1715 49.3905L50.4405 49.2752C50.4405 49.1599 50.4021 49.1215 50.2868 49.083C50.2483 49.1215 50.2099 49.1599 50.1331 49.1983ZM49.1724 49.6595L49.134 49.621L48.9802 49.5442L48.7112 49.9285C48.8265 49.9285 48.9034 49.9669 48.9418 50.0437C48.9802 49.9669 48.9802 49.89 49.0187 49.89V49.8516C49.0571 49.8516 49.0571 49.8132 49.0571 49.8132C49.134 49.7747 49.134 49.6979 49.1724 49.6595ZM36.7603 51.1581C36.7603 51.0813 36.7987 51.0429 36.7987 51.0429C36.7987 51.0044 36.7603 51.0044 36.7603 51.0044C36.7219 51.0044 36.6834 51.0429 36.6834 51.0813C36.6834 51.1581 36.7219 51.1581 36.7603 51.1581ZM52.3619 51.235C52.2466 51.235 52.285 51.4656 52.4003 51.3887C52.4387 51.3503 52.4387 51.3503 52.4387 51.3118C52.4387 51.235 52.4003 51.235 52.3619 51.235ZM48.7112 51.504L48.7881 51.4656L48.6728 51.3887H48.6344L48.7112 51.504ZM74.1779 30.3304C74.2932 30.561 74.2932 30.7915 74.2163 31.0221L67.2609 48.0071L67.0304 55.1162C67.0304 55.6157 66.7614 55.8847 66.2618 55.8847L61.1894 56C60.6898 56 60.344 55.6157 60.3824 55.1546L60.9972 48.7756C59.1912 43.8569 57.6156 39.5914 56.5781 36.4788C56.0401 34.9417 55.3868 33.3662 54.8873 31.7907C54.7336 31.368 55.0026 30.9453 55.3484 30.83L59.4601 29.3697C59.9597 29.1776 60.2671 29.3697 60.4593 29.8309L64.2252 39.6299L65.0321 37.7085L65.1858 37.6701L65.0321 37.6316L68.2985 29.9461C68.4522 29.5619 68.7212 29.4082 69.1055 29.4466L73.563 29.9461C73.7936 29.9461 74.0242 30.0999 74.1779 30.3304ZM73.6399 31.8675V31.2143C73.6015 31.2143 73.563 31.1758 73.563 31.1374C73.563 31.1374 73.563 31.099 73.4862 31.099H72.6792C72.5255 31.0221 72.4102 30.9453 72.2565 30.9068L72.1028 30.7915C72.0259 30.7915 71.9491 30.7531 71.8722 30.7147C71.6801 30.83 71.488 30.8684 71.3342 30.8684C71.219 30.8684 71.1037 30.8684 71.0653 30.7915C70.7963 30.6378 70.681 30.561 70.2967 30.4073C70.143 30.3688 69.874 30.3304 69.5282 30.3304C69.4129 30.3304 69.2592 30.4841 69.2592 30.561C69.2592 30.7147 69.336 30.7915 69.5282 30.83C70.0277 30.9453 69.8356 30.8684 70.2583 31.0605C70.3351 31.099 70.5273 31.1758 70.8731 31.1758H71.3342L71.6417 31.2911L72.3334 31.5217C72.4486 31.5601 72.6792 31.637 73.0251 31.7907C73.2172 31.8675 73.3325 31.9059 73.4093 31.9059C73.4862 31.9059 73.563 31.8675 73.6399 31.8675ZM57.1929 31.2527C57.3851 31.2143 57.5003 31.1758 57.5003 31.099C57.2698 30.9068 57.1929 30.8684 57.1161 30.8684C56.9624 30.8684 56.7318 31.0221 56.6549 31.099C56.7318 31.1758 56.7702 31.2527 56.8086 31.368L57.1929 31.2527ZM56.0401 31.1758L56.1938 31.099C56.117 31.099 56.117 31.0605 56.117 30.9837C56.0401 31.0221 56.0017 31.0605 56.0017 31.099C56.0017 31.1374 56.0017 31.1374 56.0401 31.1758ZM57.9999 31.1758C58.0383 31.1758 58.1152 31.1374 58.192 31.099L58.0768 31.0221C58.0383 31.0221 57.9999 30.9837 57.9615 30.9837C57.8462 31.0221 57.7693 31.099 57.7693 31.1374C57.8462 31.1758 57.923 31.1758 57.9999 31.1758ZM67.7221 37.2089C67.7989 37.1321 67.8373 37.0937 67.8758 37.0937L67.7605 36.9784C67.5684 36.9784 67.4531 36.9784 67.4146 37.0168H67.2994V37.1705C67.3378 37.2474 67.4146 37.2474 67.5299 37.2474C67.5684 37.2474 67.6452 37.2474 67.7221 37.2089ZM64.3404 39.7067H64.302C64.302 39.7067 64.302 39.7452 64.3404 39.7836C64.4173 39.8604 64.4942 39.822 64.6479 39.7836V39.6683L64.3404 39.6299V39.7067ZM64.1099 40.2831C64.1099 40.3216 63.9946 40.36 63.8025 40.4753H64.2636C64.3789 40.4753 64.4942 40.3984 64.571 40.3216C64.4942 40.3216 64.4557 40.2831 64.4173 40.2831C64.3404 40.2447 64.302 40.2447 64.2636 40.2447C64.1867 40.2447 64.1099 40.2447 64.1099 40.2831ZM64.3404 41.0901C64.4173 41.0901 64.4942 41.0517 64.571 41.0133C64.6479 41.0517 64.6863 41.0901 64.7247 41.0901H64.8784C64.8784 41.0517 64.8784 41.0517 64.9553 41.0517C64.8784 41.0133 64.8016 40.9364 64.8016 40.898C64.8016 40.8596 64.7631 40.8211 64.6479 40.8211C64.6094 40.8211 64.5326 40.8596 64.4557 40.9364C64.4173 40.9364 64.3789 40.9748 64.3404 41.0133C64.2636 41.0133 64.2252 41.0517 64.1867 41.0517C64.2252 41.0517 64.2636 41.0517 64.2636 41.0901H64.3404ZM64.9937 41.7818L65.109 41.6281L64.7247 41.5897C64.6863 41.6281 64.6479 41.6665 64.6479 41.7434C64.6479 41.8587 64.7247 41.8971 64.8016 41.9355C64.8784 41.8971 64.9553 41.8587 64.9937 41.7818ZM62.957 42.1661L62.9955 42.0124C62.957 42.0124 62.8802 42.0124 62.8418 42.0508C62.8033 42.0508 62.7649 42.0892 62.7649 42.0892H62.8418L62.957 42.1661ZM67.7989 42.5119C67.8373 42.4351 67.7989 42.3967 67.7989 42.3198H67.7221C67.7221 42.3198 67.6836 42.3198 67.6836 42.2814H67.6068C67.5684 42.2814 67.4915 42.3198 67.4146 42.3967C67.5299 42.5119 67.4915 42.5119 67.5684 42.7425C67.5684 42.7425 67.6452 42.7041 67.6836 42.7041H67.7989V42.5119ZM63.5719 42.7809C63.6487 42.7425 63.6872 42.7041 63.764 42.6272C63.8409 42.5504 63.9177 42.5504 63.9562 42.5119V42.5504H64.1867V42.4735H63.9562V42.5119C63.7256 42.4735 63.6103 42.4735 63.6103 42.4735C63.4182 42.4735 63.4182 42.5888 63.4182 42.6272C63.4182 42.7041 63.4566 42.7809 63.5719 42.7809ZM64.033 43.0115C64.2636 43.0115 64.3789 42.9346 64.4173 42.7809C64.3789 42.7809 64.3404 42.7809 64.302 42.7425C64.2636 42.7425 64.2252 42.7041 64.1867 42.7041C64.033 42.7041 63.7256 43.0115 63.8025 42.9731C63.8409 42.9731 63.9562 43.0115 64.033 43.0115ZM63.5719 43.2805L63.6103 43.2421L63.5335 43.2036L63.495 43.2421L63.5719 43.2805ZM67.4531 44.318C67.3762 44.3565 67.2994 44.318 67.2609 44.2796C67.3378 44.2412 67.3378 44.2028 67.3378 44.1643C67.3762 44.0875 67.4915 44.0106 67.6068 43.9722C67.6836 43.9338 67.7221 43.9338 67.7605 43.8953C67.7221 43.8569 67.6836 43.78 67.6836 43.7416C67.6452 43.7032 67.6068 43.6648 67.6068 43.6263C67.6068 43.5495 67.6068 43.5111 67.6452 43.4726V43.3573H67.4531C67.4146 43.3189 67.3378 43.3573 67.2609 43.3573C67.2609 43.3958 67.2994 43.4726 67.3378 43.5879C67.2994 43.6263 67.2994 43.6263 67.2609 43.6263C67.2609 43.6648 67.2225 43.7032 67.2225 43.7032C67.1841 43.7032 67.1841 43.7032 67.1841 43.7416C67.1456 43.8953 67.1072 43.9722 67.1072 43.9722C67.1072 44.0875 67.0688 44.1643 67.0688 44.1643C67.0688 44.2412 67.1072 44.2796 67.1456 44.318C67.2225 44.3565 67.2609 44.4333 67.2994 44.5102H67.4531C67.5299 44.5102 67.6068 44.4717 67.6836 44.4333C67.6452 44.4333 67.6452 44.3949 67.6452 44.3949V44.3565C67.5684 44.318 67.4915 44.318 67.4531 44.318ZM66.7998 44.6255V44.5486L66.5692 44.587L66.7998 44.6255ZM66.6077 52.1572C66.6461 52.0804 66.6461 51.9651 66.6461 51.8498C66.6461 51.8114 66.6077 51.773 66.5692 51.773V50.8123C66.6077 50.6201 66.6077 50.4664 66.6077 50.2359C66.6077 50.1206 66.6077 50.0822 66.5692 50.0053V48.9293C66.5692 48.8909 66.5308 48.8525 66.5308 48.8525C66.4924 48.8141 66.4924 48.7756 66.4924 48.7372C66.4924 48.6988 66.4924 48.6219 66.5308 48.6219C66.5692 48.5451 66.6077 48.4298 66.5692 48.3145C66.5308 48.2376 66.5308 48.1992 66.5308 48.1608C66.5308 48.1608 66.5308 48.1224 66.5692 48.0839C66.5692 48.0071 66.6077 48.0071 66.6077 47.9686C66.6461 47.8534 66.6461 47.7765 66.6077 47.6612C66.5692 47.5459 66.5692 47.4691 66.5692 47.3538C66.5308 47.277 66.5308 47.1617 66.5692 47.008C66.5692 46.8927 66.6077 46.7774 66.6077 46.7005H65.9544V49.083C65.9928 49.1983 65.9928 49.352 65.9928 49.5057C65.9544 49.5057 65.9544 49.5442 65.916 49.5826L65.8775 49.621C65.8775 49.6979 65.8775 49.6979 65.9544 49.7747C65.9544 49.8132 65.9928 49.8516 65.9928 49.89C66.0313 50.2359 66.0313 50.6586 65.9928 51.0813C65.9544 51.6577 65.9544 52.042 65.9544 52.2341C65.9544 52.2725 65.9544 52.311 65.8775 52.311C65.8391 52.3494 65.8391 52.3878 65.8391 52.4262C65.8391 52.4647 65.8391 52.5031 65.8775 52.5415C65.8775 52.5415 65.8775 52.58 65.916 52.58C65.9544 52.6952 65.9928 52.7721 65.9544 52.9258V53.2332C65.9544 53.2332 65.9544 53.2716 65.916 53.3101C65.8775 53.3485 65.8775 53.3869 65.916 53.3869C65.9928 53.4254 66.0313 53.4254 66.0697 53.4254V53.5791C66.185 53.6559 66.2618 53.6943 66.3387 53.6943H66.4924C66.4924 53.6943 66.4924 53.6175 66.5308 53.5791C66.5692 53.5791 66.5692 53.5406 66.5692 53.4638V53.3869H66.6077V52.1572ZM90.3171 44.9329L94.1215 52.0804C94.3136 52.4647 94.2367 52.8105 93.8525 53.0795L89.6254 55.8463C89.4717 55.9616 89.2412 56 89.0106 55.9616C88.7416 55.8847 88.5879 55.731 88.511 55.5389C87.6272 53.6175 87.0124 52.2725 86.4744 51.3887V51.3503C85.7443 50.0053 84.9373 48.6988 84.1687 47.3922L82.0168 47.9686L81.9015 54.9625C81.9015 55.462 81.6325 55.731 81.133 55.731H76.4064C75.9452 55.731 75.6378 55.3852 75.6378 54.924L77.2134 31.1374C77.2518 30.7147 77.4823 30.4841 77.8666 30.4073L83.6692 29.6771H83.7076L84.7836 29.5619C86.5128 29.3697 88.3958 29.3313 90.0866 29.7156C94.3905 30.6378 95.4664 35.9408 93.9293 40.36C93.4682 41.6281 92.7765 42.7041 91.8158 43.7032C91.3931 44.0875 90.932 44.5102 90.3171 44.9329ZM85.4368 31.5985V31.6754H85.7827V31.5985H85.4368ZM85.7827 31.9059H85.5137L85.4753 31.9444V32.0597H85.6674C85.6674 32.0212 85.7058 31.9828 85.7443 31.9444L85.7827 31.9059ZM87.2429 31.9828V32.1749L87.3966 32.0981C87.3966 32.0597 87.3582 32.0597 87.3198 32.0597C87.2814 32.0597 87.2429 32.0212 87.2429 31.9828ZM86.705 32.1749L86.6281 32.2518H86.705L86.7818 32.1749H86.705ZM86.0901 32.3286H85.898C85.9364 32.3286 85.9748 32.3286 85.9748 32.3671C85.9748 32.4055 85.9748 32.4055 86.0133 32.4055C86.0517 32.4055 86.0901 32.4055 86.0901 32.3671V32.3286ZM85.091 32.5208C84.9373 32.6361 84.8989 32.7514 85.0141 32.9051H85.2831C85.36 32.7898 85.1294 32.5592 85.091 32.5208ZM89.2027 32.5208C89.1643 32.5976 89.2796 32.7129 89.3565 32.7129C89.3949 32.7129 89.3949 32.6745 89.3949 32.6361C89.3949 32.6361 89.4333 32.6361 89.4717 32.5592L89.2027 32.5208ZM88.511 32.5976C88.3958 32.7129 88.3189 32.7898 88.2805 32.8666H88.3189L88.3573 32.9051H88.3958C88.5495 32.8282 88.5879 32.7514 88.5879 32.7129C88.5879 32.6745 88.5495 32.6361 88.511 32.5976ZM78.4815 32.7129V32.9051H78.5583V32.7129H78.4815ZM86.6281 32.7129C86.5897 32.7129 86.5512 32.7898 86.4744 32.8666L86.8587 32.9051L86.9355 32.7898C86.8971 32.7898 86.8587 32.7514 86.7818 32.7514C86.7818 32.7129 86.705 32.7129 86.6281 32.7129ZM87.4735 32.7898H87.1661C87.1661 32.8282 87.1661 32.8666 87.2045 32.9051C87.2429 32.9435 87.2429 32.9435 87.2429 32.9819H87.4735V32.7898ZM90.2403 32.7898V32.9051H90.394V32.7898H90.2403ZM84.8604 33.1741V33.2509L85.0141 33.1741L84.9757 33.0972L84.8604 33.1741ZM87.7041 33.1741V33.2509H87.8578C87.8962 33.2125 87.8962 33.1741 87.8578 33.1741L87.7809 33.0972C87.7425 33.1356 87.7425 33.1741 87.7041 33.1741ZM86.705 33.2509H86.6281V33.4046H86.705V33.2509ZM87.1661 33.5583C87.0892 33.6352 87.0124 33.6736 86.9355 33.712C86.8587 33.7505 86.8202 33.7889 86.7818 33.8273H87.1661V33.5583ZM88.0115 33.6736C87.9731 33.6352 87.8962 33.5968 87.6272 33.5968C87.6272 33.6352 87.7041 33.6352 87.7809 33.712C87.7425 33.6736 87.7809 33.712 87.9346 33.7505H87.9731V33.712L88.0115 33.6736ZM88.6648 33.9426L88.7416 33.8657L88.5879 33.7889C88.5879 33.7889 88.5495 33.8273 88.4342 33.8273L88.511 34.0195C88.5879 33.981 88.6263 33.9426 88.6648 33.9426ZM90.5477 34.1732C90.5477 34.0963 90.5093 33.981 90.3556 33.8657V34.25C90.394 34.25 90.4708 34.2116 90.5477 34.1732ZM88.9722 33.9042L88.78 34.0195C88.7032 34.0579 88.6263 34.0963 88.6263 34.1732C88.6263 34.25 88.7032 34.25 88.78 34.25C88.8569 34.25 88.9337 34.2885 88.9722 34.2885C89.0106 34.1732 89.0106 34.0195 88.9722 33.9042ZM84.2072 34.1732H83.8613C83.8997 34.25 83.9382 34.3269 83.9382 34.4037C83.9382 34.3653 83.9382 34.4422 84.015 34.6343L84.1687 34.5574C84.1687 34.519 84.1303 34.4806 84.1303 34.4422C84.0919 34.4037 84.0919 34.4037 84.0919 34.3653V34.25C84.0919 34.2116 84.1303 34.1732 84.2072 34.1732ZM89.0106 34.4422C88.9337 34.4037 88.8569 34.3653 88.78 34.3653L88.7416 34.5574L88.78 34.5959H88.9337V34.5574H89.0106V34.4422ZM90.7014 34.8649C90.7783 34.8264 90.7783 34.7112 90.7398 34.5959C90.5861 34.6727 90.4708 34.7496 90.394 34.8264L90.7014 34.8649ZM91.0857 34.9801C91.0473 34.9417 91.0088 34.9417 91.0088 34.9417C91.0088 34.9801 91.0473 35.0186 91.0857 35.057C91.1241 35.0954 91.1625 35.1339 91.201 35.1339C91.1625 35.0186 91.1241 34.9801 91.0857 34.9801ZM82.3626 41.4744C84.4762 41.167 86.5897 40.629 87.6656 38.5539C88.0499 37.7854 88.511 36.7094 88.1268 35.864V35.8256C88.0115 35.5181 87.7041 35.326 87.2429 35.2107C86.7818 35.1723 86.2438 35.1723 85.629 35.326L82.9391 35.9408L82.3626 41.4744ZM89.6639 35.6334V35.7871H89.856C89.856 35.7487 89.856 35.7103 89.8176 35.6718C89.7792 35.6718 89.7407 35.6718 89.6639 35.6334ZM89.587 36.1714L89.8176 36.2483C89.8944 36.1714 89.9329 36.0945 89.9329 36.0177H89.7792C89.7023 36.0561 89.6639 36.0945 89.6254 36.0945C89.587 36.133 89.5486 36.1714 89.587 36.1714ZM90.3556 36.1714C90.4708 36.1714 90.5477 36.0945 90.5477 36.0177H90.3556V36.1714ZM93.1992 36.5557C93.1992 36.6325 93.1608 36.671 93.1223 36.671C93.1608 36.7094 93.2376 36.7094 93.3145 36.7478C93.3529 36.7478 93.4298 36.7862 93.5451 36.7862C93.5451 36.7478 93.5451 36.7094 93.5835 36.7094C93.6219 36.671 93.6219 36.6325 93.6219 36.5941C93.6219 36.5172 93.5835 36.402 93.4682 36.2483V36.5557H93.1992ZM90.2019 36.4788C90.2019 36.5172 90.1634 36.5172 90.125 36.5172C90.2019 36.5557 90.3556 36.5941 90.394 36.5941C90.394 36.5941 90.3556 36.5557 90.3556 36.5172C90.3171 36.4788 90.2787 36.4788 90.2403 36.4788H90.2019ZM90.2787 36.7478L90.2403 36.7862L90.3556 36.8631H90.394L90.2787 36.7478ZM93.4682 37.7469H93.5451V36.8631H93.4682V37.7469ZM93.5066 38.6308C93.4682 38.5155 93.5066 38.3618 93.6988 38.2081C93.5451 38.1696 93.5066 38.0928 93.5066 38.0159C93.5451 37.9391 93.5066 37.8622 93.4682 37.7854V40.5137C93.5451 40.3984 93.6219 40.2447 93.6219 40.0526C93.6219 39.9373 93.5835 39.7836 93.5835 39.5914C93.5451 39.4377 93.5451 39.3225 93.5451 39.2072C93.5451 39.1303 93.5451 39.0535 93.5835 39.015C93.5835 38.8613 93.5451 38.746 93.5066 38.6308ZM89.1259 38.2081L89.5486 38.4771C89.4717 38.3233 89.318 38.2081 89.1259 38.2081ZM90.2019 38.8998V38.7845H89.856V38.8998H90.2019ZM88.8569 39.3609L89.2027 39.284C89.2027 39.2456 89.1643 39.2072 89.1259 39.1687C89.0106 39.0919 88.9337 39.0919 88.9337 39.0919L88.8569 39.3609ZM79.5574 39.8604H79.7111C79.6727 39.7452 79.6343 39.7067 79.5574 39.6299C79.4806 39.5914 79.4806 39.553 79.4806 39.4762C79.4037 39.5914 79.2884 39.6299 79.0963 39.6683C79.1732 39.6683 79.2884 39.7067 79.4037 39.7452C79.4806 39.7836 79.5574 39.822 79.5574 39.8604ZM88.1652 39.8604C88.3958 39.9373 88.511 40.0142 88.6263 39.822V39.6299L88.3189 39.5914C88.2036 39.6299 88.1652 39.6683 88.2036 39.6683C88.1652 39.6683 88.1268 39.7067 88.1268 39.7836C88.1268 39.822 88.1652 39.8604 88.1652 39.8604ZM78.8657 39.6299V39.7067C78.8657 39.7836 78.9042 39.7836 78.9426 39.822C78.981 39.822 78.981 39.7836 79.0194 39.7836V39.7452C79.0579 39.7067 79.0963 39.6683 79.0963 39.6299H78.8657ZM79.1732 40.3216C79.25 40.3216 79.3269 40.2831 79.7111 40.2063C79.519 40.091 79.4037 39.9757 79.25 39.9757C79.2116 39.9757 79.1732 40.0142 79.0963 40.0526C79.0194 40.091 78.9426 40.1294 78.8657 40.2063C78.9426 40.2063 78.981 40.2447 79.0194 40.2447C79.0579 40.2831 79.0963 40.3216 79.1732 40.3216ZM89.2412 40.2447L89.318 40.091L89.1643 40.0526L89.0875 40.2063L89.2412 40.2447ZM86.705 40.5906C86.5897 40.5906 86.4744 40.7058 86.4744 40.7827C86.5128 40.8211 86.6281 40.8596 86.705 40.8596V41.0517C86.8971 41.0517 86.8971 41.0133 87.0892 40.9364C86.9739 40.8596 86.8587 40.8211 86.705 40.8211V40.7443C86.7434 40.7058 86.7434 40.629 86.705 40.5906ZM87.7809 40.8596H88.0883V40.7827L88.0115 40.629L87.7809 40.8596ZM78.9426 40.9748H79.0194L78.9426 40.7058H78.8657L78.9426 40.9748ZM87.3966 41.1286C87.4735 41.0133 87.4735 40.898 87.3966 40.7827H87.1661C87.2429 40.9364 87.3198 41.0901 87.3966 41.1286ZM78.9426 41.2438L79.0194 41.0901L78.9426 41.0517L78.8657 41.2054L78.9426 41.2438ZM80.1338 41.2823V41.1286H79.9417V41.2823H80.1338ZM85.0141 41.3207L85.2063 41.2823L85.0141 41.167V41.3207ZM87.0892 41.2823C86.9355 41.3591 86.8202 41.436 86.705 41.5513H87.0124L87.6272 41.705L87.5888 41.6665C87.5504 41.6281 87.5504 41.6281 87.5504 41.5897V41.5513H87.1661L87.0892 41.2823ZM87.6272 41.974C87.7041 41.974 87.7425 41.9355 87.7809 41.9355C87.8194 41.9355 87.8578 41.9355 87.8578 41.8971C87.8578 41.8587 87.8578 41.7818 87.8194 41.7434L87.7041 41.6281C87.5888 41.7818 87.5504 41.8971 87.6272 41.974ZM86.9355 42.3198C87.0124 42.3198 87.0508 42.3582 87.0892 42.3967C87.2429 42.2814 87.3198 42.2045 87.3198 42.0892C87.3198 42.0892 87.2814 42.0508 87.2814 42.0124L87.2429 41.974C87.2045 41.9355 87.2045 41.9355 87.1661 41.7818L87.0892 41.8587H87.0124L86.9355 41.9355V42.3198ZM78.4046 41.974C78.3662 41.974 78.3662 42.0124 78.3662 42.0508H78.5583C78.5583 42.0124 78.4815 41.9355 78.4046 41.8587V41.974ZM88.0883 42.2045V42.3198L88.3958 42.2814V42.1277L88.0883 42.2045ZM87.7041 42.3582C87.5119 42.3582 87.3966 42.3967 87.3966 42.5119C87.3966 42.5888 87.4735 42.6272 87.6272 42.6272H87.7041V42.3582ZM79.3269 42.5119L79.6343 42.4351L79.5574 42.3967L79.3269 42.4735V42.5119ZM84.4762 42.7041C84.553 42.6657 84.5914 42.5888 84.6299 42.5504L84.4762 42.4351C84.3609 42.4735 84.3224 42.5504 84.3224 42.6272L84.4762 42.7041ZM87.8578 42.6272C87.7041 42.7041 87.6272 42.7809 87.6272 42.8962H87.8578C87.9731 42.8194 87.9731 42.7425 87.8578 42.6272ZM87.3966 42.9731H87.5504C87.5504 42.8962 87.4735 42.8194 87.3966 42.7809C87.2814 42.7809 87.1661 42.8962 87.1661 42.9346C87.2429 42.9731 87.3198 42.9731 87.3966 42.9731ZM88.3189 43.2421H88.511V43.0499C88.511 43.0115 88.4726 43.0115 88.4342 43.0115C88.4342 43.0115 88.3958 43.0115 88.3958 42.9731C88.3958 42.9731 88.3573 42.9346 88.3189 42.9346H88.0499C88.0883 43.0115 88.1268 43.0884 88.1268 43.2421C88.2036 43.2805 88.2421 43.2805 88.3189 43.2421ZM84.1687 43.6263H84.3224V43.5495H84.1687V43.6263ZM88.0883 43.78C88.1652 43.78 88.2421 43.78 88.2805 43.7416C88.3189 43.7032 88.3573 43.6648 88.3573 43.6263C88.3189 43.5879 88.2036 43.5495 88.0115 43.5495L88.0883 43.78ZM84.3224 44.1643C84.3224 44.2028 84.3224 44.2412 84.3609 44.2412H84.4762C84.5146 44.0875 84.5146 44.049 84.4762 44.049C84.3609 44.049 84.3224 44.0875 84.3224 44.1643ZM88.2036 44.6255L88.1268 44.3949C88.1268 44.3565 88.0883 44.318 88.0499 44.2412C87.9346 44.3565 87.8578 44.4717 87.8578 44.587C87.8578 44.587 87.8962 44.587 87.9346 44.6255H88.2036ZM88.2805 44.856L88.3958 44.7023L88.2421 44.6639L88.1268 44.8176L88.2805 44.856ZM88.5879 45.0097C88.7032 45.0097 88.8185 44.9713 88.9337 44.8944L88.5879 44.8176C88.511 44.9329 88.511 44.9713 88.5879 45.0097ZM88.0499 44.9329V44.8944C87.9346 44.8176 87.7809 44.856 87.7041 44.9329C87.7809 45.0097 87.8578 45.0097 87.9731 45.0097C88.0115 45.0097 88.0499 44.9713 88.0499 44.9329ZM84.5146 45.7014H84.5914L84.553 45.5861L84.4762 45.6246L84.5146 45.7014ZM88.511 47.008L88.6648 47.0848C88.6648 47.008 88.6648 46.9695 88.6263 46.9311C88.6263 46.9695 88.5879 46.9695 88.5879 46.9695L88.5495 47.008H88.511ZM91.9311 48.6988H91.739L91.8542 48.8141C91.8927 48.8141 91.9311 48.7756 91.9311 48.6988ZM92.0848 49.1599C92.0848 49.1215 92.0464 49.083 92.0464 49.0446H91.8542V49.2752C91.9311 49.352 92.0464 49.3905 92.1617 49.3905C92.0848 49.2752 92.0848 49.2368 92.0848 49.1599ZM92.2385 50.0053L92.3154 49.89L92.2385 49.8516L92.1617 49.9669L92.2385 50.0053ZM92.7765 51.5808L92.8149 51.4271C92.8149 51.3503 92.7381 51.2734 92.5844 51.235C92.5075 51.3118 92.4691 51.3503 92.4691 51.3887C92.4691 51.5424 92.6612 51.6961 92.7381 51.6961C92.7381 51.6961 92.7381 51.6577 92.7765 51.5808ZM91.7774 52.0035C91.8542 52.0035 92.1232 51.9267 92.2001 51.8498C92.1617 51.8498 92.1232 51.8114 92.0848 51.8114L91.9695 51.7345C91.8927 51.6961 91.7774 51.6961 91.7005 51.6961C91.5852 51.6961 91.47 51.773 91.47 51.8498C91.5852 51.9651 91.7005 52.0035 91.7774 52.0035ZM78.5583 54.2323C78.6736 54.2323 78.7505 54.1939 78.7889 54.0786H78.6352C78.6352 54.1939 78.5967 54.2323 78.5583 54.2323ZM103.071 50.5049C104.993 51.1966 106.491 50.6586 106.491 49.0446C106.491 48.0455 106.03 47.3538 105.3 46.8158C104.57 46.2394 103.455 45.5861 102.764 45.1634L101.995 44.7023C101.957 44.7023 101.957 44.6639 101.918 44.6639C101.611 44.5102 100.842 43.8953 99.6511 42.8962C99.6511 42.8962 99.6127 42.8962 99.6127 42.8578C98.921 42.2045 98.4599 41.3975 98.1909 40.2831C97.6529 37.9391 98.0372 35.6718 99.3437 33.4815C100.612 31.2527 102.648 29.9461 105.492 29.6003C107.99 29.2929 110.987 29.4082 112.716 31.5601C113.37 32.3671 113.639 33.4815 113.716 34.519C113.754 34.8264 113.792 35.2876 113.792 35.9024C113.792 36.7094 113.754 37.4011 113.716 38.0159C113.716 38.5155 113.447 38.746 112.947 38.746H108.489C107.99 38.746 107.721 38.4771 107.721 37.9775C107.721 37.1321 107.682 36.2098 107.606 35.2491C107.529 34.8264 107.375 34.5574 107.068 34.519H107.029C106.299 34.4037 105.761 34.7496 105.454 35.5181C104.762 36.94 105.069 38.2849 106.145 39.2456C106.645 39.7452 107.183 40.1294 107.682 40.4369L108.874 41.167C111.833 42.9731 113.985 45.5093 113.6 49.1599V49.1983C113.062 52.0035 111.679 54.2708 109.258 55.2314C107.375 55.9616 105.415 56.0769 103.455 55.8847C101.304 55.6542 98.8441 54.5013 96.9996 53.5022C96.6154 53.2716 96.4616 52.9258 96.6922 52.4647L98.383 49.083C98.5367 48.6988 99.0363 48.5066 99.459 48.7372C100.612 49.4289 101.841 50.0437 103.071 50.5049ZM109.45 34.0579V33.981H109.296V34.0579H109.45ZM110.372 35.2107C110.372 35.2107 110.334 35.2107 110.296 35.1723C110.296 35.1723 110.257 35.1723 110.257 35.1339C110.257 35.1723 110.219 35.2107 110.219 35.2107C110.219 35.2107 110.219 35.2491 110.18 35.2491C110.142 35.3644 110.257 35.3644 110.296 35.2876L110.372 35.2107ZM109.412 36.7478C109.296 36.7478 109.22 36.7862 109.22 36.9015H109.412C109.45 36.9015 109.45 36.8631 109.45 36.8247C109.45 36.7862 109.412 36.7478 109.412 36.7478ZM108.528 43.5111C108.528 43.5111 108.528 43.4726 108.566 43.4342C108.566 43.3958 108.605 43.3573 108.528 43.2421H108.297C108.182 43.4726 108.297 43.6648 108.297 43.7032H108.605C108.605 43.6263 108.566 43.5495 108.528 43.5111ZM107.221 43.3573H106.875V43.5111H107.221V43.3573ZM108.682 43.7032C108.605 43.7032 108.528 43.7032 108.451 43.7416C108.451 43.78 108.528 43.8569 108.605 43.9722C108.643 43.9722 108.72 43.8953 108.912 43.8185V43.78C108.951 43.78 108.951 43.7416 108.989 43.7416C108.912 43.7416 108.874 43.7032 108.835 43.7032H108.682ZM107.913 45.0482L107.836 45.0097L107.759 44.9329V45.2019H107.836L107.913 45.2403C107.951 45.2403 107.99 45.2019 107.99 45.2019C107.99 45.125 107.99 45.125 107.913 45.0482ZM110.065 45.5477L109.911 45.394C109.758 45.4709 109.681 45.5477 109.681 45.663H109.911L109.988 45.6246H110.065V45.5477ZM109.758 46.1626L109.412 46.1241V46.2394L109.758 46.3163V46.1626ZM111.525 46.9695L111.487 46.9311C111.448 46.9311 111.448 46.9311 111.448 46.8927H111.103L111.026 47.0848C111.064 47.2001 111.179 47.277 111.333 47.277C111.487 47.277 111.564 47.2001 111.564 47.0464C111.564 46.9695 111.564 46.9695 111.525 46.9695ZM109.758 46.9311L109.642 47.0464L109.796 47.1232L109.911 46.9695L109.758 46.9311ZM110.372 48.0455C110.296 48.0071 110.257 47.9686 110.219 47.9686H110.065L109.988 48.2376C110.027 48.2761 110.065 48.2761 110.065 48.2761H110.103L110.142 48.3145H110.411C110.411 48.2761 110.411 48.2761 110.449 48.2761V48.1992C110.488 48.1992 110.488 48.1608 110.488 48.1224C110.411 48.1224 110.372 48.0839 110.372 48.0455ZM111.871 48.1224H111.717C111.679 48.1608 111.641 48.1992 111.679 48.2761V48.4298C111.756 48.4298 111.794 48.3914 111.871 48.3145C111.91 48.3145 111.91 48.2761 111.948 48.2761C111.948 48.2761 111.986 48.2761 112.063 48.1992C111.986 48.1608 111.948 48.1608 111.948 48.1608C111.91 48.1608 111.871 48.1224 111.871 48.1224ZM111.064 48.6603L111.026 48.4682C110.949 48.4682 110.91 48.4682 110.872 48.5066L110.795 48.5451C110.603 48.5451 110.488 48.5835 110.449 48.5835C110.411 48.7756 110.603 48.8525 110.757 48.8525L110.91 48.7756L111.064 48.6603ZM110.565 49.4673C110.526 49.5057 110.488 49.5442 110.488 49.5826L110.411 49.621C110.372 49.6595 110.334 49.6595 110.296 49.6595H110.257C110.219 49.6595 110.142 49.6595 110.065 49.621C109.95 49.5826 109.834 49.5826 109.758 49.5826H109.642V49.7363L109.681 49.7747C109.681 49.8132 109.719 49.8516 109.758 49.89C110.142 49.9285 110.296 49.9669 110.257 49.9669H110.372C110.449 50.0437 110.526 50.0437 110.565 50.0437H110.68L110.757 50.0053H110.834V49.9285C110.872 49.89 110.872 49.8516 110.872 49.8132C110.872 49.7363 110.757 49.6595 110.565 49.4673ZM111.794 49.621H111.525C111.525 49.6979 111.487 49.7747 111.41 49.8516H111.717V49.7747C111.756 49.6979 111.794 49.6595 111.794 49.621ZM111.487 49.89H111.295V50.1206H111.487V49.89ZM110.449 50.159H110.065C110.142 50.0822 110.103 50.1206 109.911 50.2359C109.873 50.2743 109.834 50.2743 109.758 50.2743C109.604 50.3512 109.527 50.428 109.527 50.5049V50.5817C109.604 50.6586 109.681 50.6586 109.834 50.6586H109.988L110.257 50.5049C110.372 50.428 110.449 50.3512 110.449 50.3127V50.159ZM111.372 50.4664C111.218 50.5049 111.179 50.5817 111.179 50.7354C111.179 50.7739 111.218 50.8891 111.333 51.0429L111.487 50.9276C111.602 50.9276 111.679 50.8507 111.679 50.7354C111.679 50.697 111.641 50.6586 111.564 50.5817C111.487 50.5433 111.41 50.5049 111.372 50.4664ZM110.488 50.8891V50.7354C110.488 50.6586 110.488 50.6201 110.449 50.6201H110.219L110.065 50.7354V50.8891C110.219 50.9276 110.334 50.9276 110.488 50.8891ZM102.879 50.8123H102.648V50.9276H102.879V50.8123ZM109.642 51.3503C109.642 51.3118 109.604 51.3118 109.604 51.2734C109.604 51.2734 109.604 51.235 109.527 51.235C109.489 51.2734 109.45 51.3118 109.45 51.3887V51.5424C109.489 51.5424 109.527 51.5424 109.527 51.504H109.604L109.681 51.4271C109.681 51.3887 109.642 51.3887 109.642 51.3503ZM108.374 51.8883C108.336 51.8883 108.297 51.8883 108.297 51.9267V51.9651C108.259 51.9651 108.22 51.9651 108.22 52.0035C108.22 52.0035 108.22 52.042 108.144 52.042C108.22 52.0804 108.336 52.1188 108.451 52.1188C108.451 52.0035 108.451 51.9267 108.374 51.8883ZM110.488 51.9651V51.8883L110.065 51.9651C110.296 52.042 110.411 52.0804 110.526 52.0804C110.526 52.042 110.526 52.0035 110.488 51.9651ZM103.379 51.9267L103.263 52.042L103.417 52.1188L103.532 51.9651L103.379 51.9267ZM108.605 52.3494L108.528 52.58C108.643 52.58 108.682 52.58 108.682 52.6184C108.874 52.6184 108.989 52.58 108.989 52.4262C108.912 52.4262 108.835 52.3878 108.797 52.3878C108.758 52.3494 108.682 52.3494 108.605 52.3494ZM107.99 52.4262H107.836V52.6184H107.99V52.4262ZM104.608 53.1948H104.339V53.3101H104.608V53.1948ZM108.835 53.1948H108.528C108.451 53.1948 108.451 53.2332 108.451 53.3101C108.451 53.3485 108.451 53.3869 108.528 53.4254L108.835 53.1948ZM133.218 35.2491L127.992 35.4413L127.685 46.739C127.569 46.739 127.454 46.8158 127.377 46.9311C127.531 47.008 127.531 47.0464 127.646 47.0464H127.685L127.646 47.9686H127.531C127.492 48.0071 127.454 48.0455 127.377 48.0455C127.3 48.0839 127.223 48.1224 127.185 48.1224C127.262 48.2376 127.3 48.3529 127.3 48.4298V48.5451L127.223 48.6219H127.185C127.185 48.6603 127.147 48.6988 127.147 48.7372L127.262 49.1215L127.339 49.4673C127.339 49.5057 127.3 49.5826 127.223 49.6595C127.147 49.7363 127.108 49.7747 127.108 49.8132C127.108 49.8516 127.147 49.89 127.147 49.9669L127.223 50.0822C127.262 50.159 127.262 50.2359 127.223 50.3127C127.185 50.5049 127.223 50.6201 127.339 50.6201H127.569L127.531 50.8507C127.531 50.8507 127.492 50.7739 127.416 50.697C127.377 50.8123 127.3 50.8507 127.223 50.8507C127.147 50.8507 127.07 50.8507 126.993 50.8891C126.993 50.8891 126.954 50.8891 126.954 50.9276H126.916V51.0044C126.916 51.0813 126.954 51.0813 126.993 51.0813C127.031 51.0813 127.07 51.0429 127.185 51.0429C127.223 51.0429 127.262 51.0813 127.3 51.0813V51.1581C127.3 51.1966 127.262 51.2734 127.223 51.3118C127.185 51.3887 127.147 51.4656 127.147 51.5424C127.223 51.5808 127.3 51.5808 127.339 51.5808L127.454 51.6577C127.531 51.7345 127.454 51.8114 127.339 51.8498C127.185 51.8883 127.108 51.9267 127.108 51.9651C127.262 52.0804 127.3 52.1572 127.3 52.1957C127.3 52.2725 127.223 52.3494 127.07 52.3878C127.07 52.4647 127.108 52.5415 127.147 52.58C127.147 52.6568 127.223 52.6952 127.3 52.7337C127.223 52.7721 127.223 52.8105 127.185 52.8105C127.147 52.8489 127.108 52.8489 127.108 52.8874C127.108 53.0027 127.108 53.0795 127.147 53.1564C127.185 53.2716 127.185 53.3869 127.185 53.4638C127.185 53.4638 127.07 53.6175 127.07 53.6943C127.07 53.7328 127.108 53.8096 127.185 53.8865C127.262 53.9633 127.3 54.0018 127.3 54.0402C127.3 54.1171 127.262 54.1939 127.185 54.2708C127.108 54.386 127.07 54.4629 127.07 54.5013C127.07 54.5782 127.223 54.8472 127.416 54.8472H127.454L127.416 55.1162C127.416 55.6157 127.147 55.8463 126.685 55.8847L121.459 56C121.037 56 120.614 55.6157 120.691 55.193L120.845 49.0446C120.845 49.0062 120.883 49.0062 120.883 49.0062H120.845L120.998 44.2796L121.152 44.3565C121.19 44.3565 121.229 44.3565 121.229 44.318V44.2412C121.152 44.2028 121.075 44.2028 120.998 44.2412L121.229 36.0177L115.926 37.0168C115.426 37.1321 115.004 36.7862 115.004 36.2483L115.234 30.4457C115.273 29.9461 115.503 29.7156 116.003 29.6771L133.257 29.3313C133.718 29.3313 134.064 29.6771 134.064 30.1383L133.948 34.4806C133.91 34.9801 133.679 35.2107 133.218 35.2491ZM118.385 33.7505H118.155V33.8657H118.385V33.7505ZM121.728 33.8657H121.536V34.0195H121.728V33.8657ZM117.386 34.0963L117.155 33.9426H116.925C116.81 34.0963 116.771 34.2116 116.848 34.3269C116.925 34.3269 117.079 34.3269 117.232 34.4037L117.386 34.25V34.0963ZM120.46 33.9426V34.1732C120.537 34.2116 120.576 34.2116 120.614 34.2116L120.652 34.1732H120.729C120.768 34.1732 120.768 34.0963 120.768 34.0579V33.9426H120.46ZM115.542 34.0963H115.196V34.2116H115.542V34.0963ZM118.078 34.0963C117.924 34.0963 117.847 34.1347 117.77 34.2116C117.693 34.2885 117.617 34.3653 117.54 34.4037C117.578 34.4806 117.693 34.4806 117.77 34.519C117.809 34.5574 117.886 34.5574 118.001 34.4806C117.924 34.4037 117.962 34.3269 118.078 34.2885C118.078 34.25 118.116 34.25 118.155 34.2116C118.231 34.2116 118.231 34.1732 118.308 34.1732C118.231 34.1347 118.193 34.1347 118.155 34.0963H118.078ZM116.963 34.4037V34.5574L117.463 34.4806L116.963 34.4037ZM118.539 34.7496H118.385L118.308 34.7112H118.231C118.078 34.9033 118.001 35.057 118.385 35.0954L118.539 35.0186V34.7496ZM121.229 34.8649H121.113C121.113 34.9417 121.152 35.0186 121.267 35.0954C121.344 35.0186 121.382 34.9417 121.382 34.8264C121.306 34.8264 121.267 34.8649 121.229 34.8649ZM117.348 35.057H117.117V35.2107H117.348V35.057ZM119.769 35.2491V35.1339C119.538 35.0954 119.384 35.057 119.231 35.057C119.077 35.057 119 35.1339 118.923 35.2876C119 35.2876 119.077 35.2876 119.154 35.326H119.269C119.307 35.3644 119.346 35.3644 119.384 35.3644C119.615 35.4029 119.73 35.3644 119.769 35.2491ZM122.074 46.3163L121.997 46.1626L121.92 46.2394L121.805 46.3163L121.882 46.3547V46.3931L122.074 46.3163ZM126.224 46.6237H125.994V46.7005C126.032 46.7005 126.071 46.739 126.071 46.739C126.071 46.739 126.071 46.7005 126.109 46.7005C126.147 46.7005 126.147 46.7005 126.224 46.6237ZM122.151 47.4307C122.151 47.3538 122.113 47.3154 121.997 47.277C121.92 47.3154 121.882 47.2385 121.882 47.0848C121.69 47.3922 121.498 47.6997 121.613 48.0455L121.575 48.1608C121.536 48.1608 121.536 48.1992 121.536 48.2376C121.536 48.3145 121.575 48.3529 121.613 48.3914L121.498 48.5066C121.459 48.5451 121.421 48.5451 121.421 48.6219C121.421 48.6219 121.459 48.6988 121.536 48.7372C121.613 48.8141 121.651 48.8525 121.651 48.8909C121.651 48.9678 121.613 49.083 121.498 49.2368V49.5057C121.536 49.5442 121.536 49.6595 121.498 49.8516L121.421 50.697C121.421 50.8123 121.382 50.966 121.382 51.1197C121.421 51.1581 121.459 51.1581 121.498 51.1581C121.536 51.1966 121.613 51.1966 121.651 51.235C121.805 51.2734 121.882 51.2734 121.92 51.2734C121.959 51.2734 121.997 51.2734 122.036 51.235L122.074 51.1966C122.074 51.1581 122.036 51.1197 121.997 51.1197C121.92 51.0813 121.92 51.0429 121.882 51.0044C121.997 51.0044 122.036 50.966 122.113 50.8507C121.959 50.7739 121.959 50.6586 121.997 50.5433C122.036 50.3896 121.997 50.159 121.997 49.8516C121.959 49.8516 121.92 49.8132 121.92 49.8132C122.074 49.7363 122.113 49.6595 122.113 49.5442L121.997 49.3136C121.959 49.1599 121.92 49.0446 121.92 48.9293C121.92 48.8525 121.882 48.7372 121.92 48.6603C121.92 48.5451 121.882 48.5066 121.844 48.4682C121.959 48.4298 122.074 48.0455 122.074 47.9302L122.113 47.5844L122.151 47.4307ZM127.608 48.6603V48.7756H127.569C127.531 48.7372 127.569 48.6988 127.569 48.6988C127.608 48.6988 127.608 48.6988 127.608 48.6603ZM126.839 50.159H126.724C126.685 50.159 126.647 50.159 126.609 50.1206V50.2359L126.762 50.2743C126.839 50.2359 126.839 50.2359 126.839 50.159ZM121.959 53.0027L121.882 51.4271C121.844 51.4271 121.805 51.3887 121.767 51.3887C121.69 51.3503 121.69 51.3118 121.651 51.3118C121.536 51.3887 121.306 51.6961 121.344 51.773C121.344 51.8114 121.344 51.8883 121.382 51.9651C121.421 52.0035 121.421 52.042 121.421 52.1188C121.382 52.3494 121.382 52.5031 121.382 52.58C121.382 52.6184 121.344 52.6568 121.344 52.6568C121.344 52.6952 121.344 52.7337 121.306 52.7721C121.382 52.8874 121.382 52.9642 121.344 52.9642C121.306 52.9642 121.267 52.9642 121.267 53.0027C121.267 53.1179 121.267 53.1948 121.344 53.2332C121.344 53.2716 121.421 53.4254 121.536 53.5791C121.575 53.5791 121.651 53.5406 121.728 53.5406C121.805 53.4254 121.844 53.3101 121.844 53.1948C121.767 53.0795 121.844 53.0411 121.959 53.0027ZM142.569 29.0623C143.03 29.0623 143.338 29.4466 143.338 29.9077C142.992 34.0195 142.685 38.4386 142.492 42.5504C142.454 44.0106 142.416 45.4324 142.416 46.8543H142.3C142.223 46.8543 142.108 46.8543 142.031 46.8927L141.993 47.1617H142.07C142.031 47.2385 141.878 47.3922 141.647 47.4691C141.916 47.5844 142.185 47.6228 142.416 47.6228V48.7372H142.223L142.07 48.8141C142.031 48.8141 141.993 48.8525 141.954 48.8525C141.954 48.8909 141.916 48.8909 141.878 48.9293V49.083C141.839 49.1599 141.839 49.1983 141.839 49.2752C141.839 49.3905 141.839 49.5057 141.878 49.6595L142.031 49.5442L142.108 49.5057L142.3 49.3905C142.339 49.352 142.339 49.2752 142.339 49.1983L142.377 49.1599H142.416C142.377 49.5442 142.377 50.0822 142.377 50.8123C142.339 50.7739 142.262 50.7739 142.185 50.8123C142.185 50.9276 142.185 50.966 142.223 50.966L142.262 51.0044V51.0429H142.339V51.0044H142.377V52.4262C142.377 52.311 142.339 52.2341 142.223 52.1572H141.916C141.916 52.2341 141.916 52.2725 141.954 52.2725V52.3878L141.993 52.4262V52.4647C142.108 52.5031 142.262 52.4647 142.377 52.4262V55.1162C142.377 55.6157 142.108 55.8847 141.609 55.8847L136.075 56C135.614 56 135.268 55.6542 135.268 55.193C135.345 51.0813 135.422 46.9311 135.652 42.7425C135.768 40.2831 135.883 37.7854 136.075 35.326C136.113 35.3644 136.152 35.3644 136.19 35.3644L136.229 35.1723C136.19 35.1339 136.152 35.1339 136.113 35.1339L136.459 29.9461C136.498 29.4466 136.767 29.216 137.266 29.216L142.569 29.0623ZM138.611 30.4457C138.65 30.4073 138.65 30.3688 138.611 30.3304C138.611 30.292 138.611 30.2536 138.65 30.2151C138.688 30.1383 138.765 30.0999 138.842 30.0999C139.034 30.0999 139.188 30.2151 139.264 30.3688C139.341 30.5226 139.418 30.6378 139.495 30.6763C139.533 30.6378 139.572 30.5226 139.572 30.4073C139.533 30.3304 139.61 30.2536 139.726 30.2151H140.187C140.187 30.1383 140.148 30.0614 140.033 30.023C139.879 30.0614 139.802 30.0614 139.764 30.023C139.726 29.9846 139.649 29.9846 139.61 29.9846C139.572 29.9846 139.495 30.023 139.418 30.0614C139.341 30.1383 139.303 30.1767 139.264 30.1767C139.188 30.1767 139.111 30.1383 139.034 30.0614C138.957 30.023 138.88 29.9846 138.842 29.9846H138.304C138.304 29.9846 138.342 30.0999 138.265 30.1767H138.035C137.958 30.0614 137.92 30.023 137.92 30.0614C137.881 30.023 137.881 30.0614 137.843 30.0999C137.843 30.1383 137.804 30.1767 137.766 30.2536H137.612C137.574 30.1767 137.535 30.1767 137.497 30.1383C137.42 30.0999 137.42 30.0614 137.382 29.9846C137.189 29.9846 137.113 29.9461 137.036 29.9461C137.036 29.9846 136.997 30.023 136.959 30.0614C136.882 30.0999 136.882 30.1383 136.882 30.1767C136.882 30.292 136.882 30.4073 136.959 30.4841C137.036 30.561 137.074 30.7147 137.036 30.9837C137.074 30.9068 137.036 31.0221 136.92 31.3295C136.882 31.4064 136.844 31.5217 136.805 31.7138C136.805 31.7522 136.805 31.7907 136.882 31.8675C136.92 31.9059 136.959 31.9444 136.959 32.0212C136.92 32.0212 136.882 32.0212 136.882 32.0597C136.844 32.0981 136.767 32.1365 136.767 32.2134C136.882 32.2518 136.882 32.3671 136.844 32.4824C136.805 32.5208 136.728 32.5976 136.728 32.7129C136.728 32.8666 136.728 33.0972 136.767 33.2893L136.844 33.712C136.844 33.7889 136.805 33.8273 136.728 33.8657H136.805L136.844 33.9042C137.074 33.7889 137.113 33.7889 137.266 33.7889V33.443C137.113 33.4046 136.959 33.1741 137.036 33.0588L137.382 32.9435C137.42 32.9435 137.497 32.9051 137.651 32.8282C137.382 32.7129 137.574 32.5208 137.843 32.5208C137.804 32.4824 137.766 32.4439 137.766 32.4055C137.727 32.3671 137.727 32.3286 137.727 32.3286C137.843 32.2134 137.958 32.1365 137.958 32.0981C137.958 32.0212 137.92 31.9828 137.881 31.9444C137.843 31.8675 137.804 31.8291 137.804 31.7907C137.881 31.7138 137.996 31.637 138.112 31.637C138.189 31.637 138.304 31.5985 138.496 31.5601C138.227 31.5601 138.112 31.5217 138.112 31.4064C138.112 31.3295 138.304 31.1374 138.611 31.1374C138.496 31.0605 138.496 30.9453 138.534 30.8684C138.496 30.8684 138.342 30.7915 138.342 30.6763C138.342 30.5994 138.534 30.4841 138.611 30.4457ZM138.727 31.2527C138.727 31.2911 138.727 31.2911 138.803 31.2911C138.88 31.2911 139.149 31.2527 139.188 31.2143C139.188 31.1758 139.188 31.1758 139.226 31.1374V31.0221C139.226 30.9453 139.226 30.9068 139.264 30.8684C139.188 30.8684 139.111 30.9068 139.111 30.9453C139.072 31.0221 139.034 31.0605 139.034 31.1374C138.957 31.2527 138.88 31.2911 138.727 31.2527ZM137.305 35.1723C137.189 35.057 137.151 34.9417 137.189 34.8264C137.189 34.7112 137.228 34.6343 137.382 34.5574C137.497 34.5574 137.574 34.4806 137.651 34.4037C137.612 34.25 137.497 34.1732 137.343 34.1732C137.189 34.2116 137.036 34.2116 136.882 34.1732C136.882 34.2885 136.728 34.519 136.69 34.519C136.882 34.6727 136.882 34.7112 136.805 34.8649C136.805 34.9033 136.767 34.9801 136.767 35.0954C136.767 35.1723 136.767 35.2491 136.805 35.4029C136.767 35.4797 136.728 35.5566 136.728 35.6334C136.651 35.7103 136.651 35.7871 136.728 35.8256C136.728 35.864 136.767 35.864 136.805 35.9408C136.844 35.9408 136.882 35.9793 136.92 36.0177L136.728 38.6308C136.536 38.746 136.498 38.7845 136.536 38.7845C136.575 38.7845 136.651 38.8229 136.728 38.8998C136.69 38.9766 136.651 39.015 136.536 39.0535L136.498 39.3993C136.651 39.4762 136.728 39.5146 136.651 39.553L136.536 39.6683L136.728 39.822L136.613 41.4744C136.498 41.5513 136.459 41.6281 136.459 41.705C136.459 41.8202 136.575 41.8971 136.613 41.9355C136.651 41.9355 136.651 41.974 136.651 41.974C136.651 42.0508 136.536 42.1661 136.421 42.2045C136.459 42.3582 136.498 42.4735 136.306 42.5504C136.613 42.7425 136.536 42.9346 136.421 43.2421C136.344 43.4342 136.267 43.5495 136.19 43.5495C136.382 43.6648 136.459 43.7032 136.459 43.78C136.421 43.78 136.421 43.8185 136.421 43.8185V43.78C136.229 43.9338 136.152 44.2028 136.152 44.2412C136.152 44.318 136.152 44.318 136.19 44.3565C136.267 44.3949 136.267 44.3949 136.267 44.4333L136.152 44.5102C136.229 44.5486 136.267 44.6255 136.267 44.7407V45.0482C136.267 45.0097 136.229 45.0866 136.19 45.3171C136.19 45.4324 136.152 45.4709 136.152 45.4709L136.267 45.7014C136.344 45.7783 136.344 45.8551 136.344 45.8936C136.344 45.932 136.344 46.0088 136.267 46.0857C136.19 46.201 136.152 46.2394 136.152 46.3163C136.152 46.3547 136.152 46.3931 136.19 46.3931V46.47H136.421C136.382 46.47 136.344 46.3931 136.344 46.3547C136.306 46.3163 136.306 46.2778 136.306 46.2394C136.421 46.1626 136.498 46.1241 136.613 46.1241C136.575 46.0857 136.382 45.394 136.382 45.2019C136.382 45.125 136.421 45.0866 136.459 45.0482C136.498 45.0097 136.536 44.856 136.536 44.5102C136.575 44.3565 136.575 44.2796 136.613 44.2028C136.651 44.1643 136.728 44.0875 136.613 44.049C136.575 44.0106 136.575 43.9722 136.651 43.8185H136.805C136.69 43.3189 136.69 43.2805 136.69 43.2036C136.69 43.0884 136.844 42.6272 136.92 42.5504H136.728V42.5888H136.536C136.536 42.5504 136.498 42.5504 136.459 42.5504L136.767 42.2429C136.882 42.1277 136.92 42.0508 136.92 42.0124C136.92 41.9355 136.882 41.8587 136.844 41.6665C136.767 41.4744 136.767 41.3207 136.844 41.167H137.151C136.959 41.167 136.844 41.0901 136.844 40.9748C136.844 40.898 136.882 40.7827 136.997 40.5521C137.113 40.36 137.151 40.2063 137.151 40.091C137.151 39.9757 137.113 39.8604 137.113 39.7067C137.074 39.6683 137.074 39.6299 137.074 39.553C137.036 39.4762 136.997 39.3609 136.997 39.2072L136.959 39.015C136.959 39.015 136.959 38.9382 137.036 38.8229C137.074 38.6692 137.074 38.5539 137.113 38.4771C137.113 38.3618 137.151 38.2465 137.189 38.0928C137.228 38.0159 137.228 37.9391 137.228 37.9391C137.228 37.8622 137.189 37.7854 137.151 37.6701C137.036 37.3627 137.074 37.2858 137.151 37.2474C137.151 37.2474 137.189 37.1705 137.305 37.0937C137.343 36.94 137.343 36.7478 137.343 36.5557C137.343 36.3251 137.382 36.1714 137.535 36.0945C137.343 35.9793 137.305 35.864 137.458 35.7487C137.42 35.6718 137.382 35.595 137.343 35.5566C137.42 35.4413 137.382 35.326 137.305 35.1723ZM141.071 35.3644C141.032 35.3644 141.032 35.4029 140.955 35.4797H141.186L141.071 35.3644ZM141.647 35.6334L141.762 35.7103C141.801 35.7103 141.916 35.6334 142.031 35.5566L141.801 35.4797C141.724 35.5566 141.647 35.595 141.647 35.6334ZM142.262 39.1687V39.0919C142.223 39.0919 142.223 39.0919 142.223 39.0535H142.147C142.108 39.0919 142.108 39.0919 142.07 39.0919C142.07 39.0919 142.031 39.0919 142.031 39.1303C142.031 39.1303 142.031 39.1687 141.954 39.1687C142.031 39.2072 142.07 39.2072 142.108 39.2072C142.147 39.2456 142.262 39.2456 142.262 39.1687ZM141.609 40.36C141.493 40.2447 141.378 40.2063 141.224 40.2063C141.224 40.2447 141.263 40.3984 141.34 40.4753C141.378 40.4753 141.455 40.4369 141.609 40.36ZM141.109 41.4744H141.263V41.3591H141.109V41.4744ZM139.879 41.705H140.148L140.187 41.4744C139.995 41.4744 139.918 41.5513 139.879 41.705ZM141.416 42.0508C141.416 42.0124 141.416 42.0124 141.455 41.974L141.34 41.8587H141.071L141.032 42.0124C141.032 42.1277 141.147 42.2045 141.301 42.2045L141.34 42.1661C141.378 42.0892 141.416 42.0892 141.416 42.0508ZM140.725 42.1277L140.686 42.3198C140.725 42.3198 140.763 42.2814 140.763 42.2814L140.802 42.2429C140.917 42.1661 140.955 42.1277 140.955 42.0508C140.994 41.9355 140.878 41.9355 140.763 41.9355C140.725 41.974 140.725 41.974 140.725 42.0124V42.1277ZM140.494 42.9731C140.417 42.9346 140.379 42.9346 140.34 42.9346C140.302 42.8962 140.264 42.8962 140.187 42.8578L140.11 43.1652L140.302 43.3189C140.187 43.3958 140.264 43.3573 140.494 43.2036C140.571 43.1652 140.648 43.1268 140.648 43.0884C140.648 43.0115 140.571 43.0115 140.494 42.9731ZM141.186 43.6263H141.416V43.5111H141.186V43.6263ZM141.032 43.9338C140.994 43.9338 140.994 43.9338 140.994 43.8569H140.725V44.049H141.032V43.9338ZM141.455 44.856C141.378 44.7792 141.263 44.7023 141.147 44.7023C141.032 44.7407 140.994 44.8176 140.994 44.9329H141.147C141.186 44.9713 141.224 44.9713 141.301 44.9713L141.455 44.856ZM141.839 45.3556L142.185 45.2787C142.147 45.1634 142.031 45.0866 141.878 45.125C141.801 45.2019 141.801 45.2403 141.839 45.2403V45.3556ZM140.763 45.7399H141.032C140.917 45.7783 140.648 45.8167 140.456 45.8936V46.0473C140.456 46.0857 140.494 46.0857 140.494 46.0857H140.571L140.609 46.1241H140.955V45.932C141.109 45.932 141.186 45.932 141.263 45.8936C141.263 45.8551 141.263 45.8167 141.224 45.7783C141.186 45.7399 141.186 45.7014 141.186 45.7014V45.663L141.224 45.4709L140.725 45.4324C140.725 45.5861 140.725 45.7014 140.763 45.7399ZM140.571 46.201C140.571 46.2394 140.533 46.2394 140.417 46.2394L140.456 46.201C140.417 46.1626 140.34 46.1241 140.187 46.1241L140.11 46.3163H140.187C140.187 46.3163 140.187 46.3547 140.225 46.3547C140.264 46.3547 140.302 46.3931 140.34 46.4315L140.417 46.3163L140.494 46.3547C140.494 46.3931 140.533 46.4315 140.571 46.4315L140.84 46.3931C140.84 46.2394 140.763 46.201 140.571 46.201ZM140.379 46.7005H140.417V46.739L140.456 46.7774H140.763C140.686 46.6621 140.533 46.6237 140.34 46.6237C140.379 46.6621 140.417 46.6621 140.379 46.7005ZM136.344 47.2385L136.382 46.7774C136.267 46.9311 136.19 47.008 136.19 46.9695C136.113 47.0464 136.075 47.0848 136.075 47.1617L136.037 48.5066C136.037 48.3529 136.075 48.2761 136.113 48.1224C136.113 47.8918 136.152 47.7381 136.152 47.6997C136.152 47.6228 136.19 47.5459 136.229 47.4307C136.306 47.3538 136.344 47.277 136.344 47.2385ZM141.032 46.9695H141.109L141.147 47.008C141.147 47.0464 141.186 47.0464 141.186 47.0848C141.224 47.1232 141.263 47.1232 141.263 47.1232C141.263 47.1617 141.263 47.1617 141.301 47.1617C141.34 47.1617 141.34 47.1617 141.34 47.1232L141.416 47.0464C141.416 47.008 141.416 46.9695 141.378 46.9311C141.378 46.9311 141.34 46.9311 141.301 46.8543H141.224C141.186 46.8158 141.186 46.8158 141.186 46.7774H140.917L140.763 46.8927L140.917 47.008H140.994L141.032 46.9695ZM140.533 46.9311L140.34 47.0464V47.1617L140.571 47.0848L140.533 46.9311ZM142.339 47.1617H142.416V47.6228C142.377 47.5844 142.377 47.5459 142.339 47.5459C142.3 47.5459 142.3 47.5459 142.262 47.5075V47.4691C142.3 47.4691 142.339 47.4307 142.339 47.3538V47.1617ZM140.648 47.4307C140.609 47.4307 140.533 47.4691 140.417 47.5844L140.533 47.6997C140.609 47.6997 140.725 47.6612 140.802 47.5844C140.84 47.4691 140.763 47.4307 140.648 47.4307ZM139.764 48.0455C139.802 48.1608 139.879 48.1992 139.956 48.1992C139.995 48.1992 140.033 48.1992 140.033 48.1608H140.11L140.187 48.1224L140.225 47.8918L140.11 47.8149C140.071 47.8149 140.033 47.8149 139.995 47.7765C139.918 47.7765 139.879 47.7381 139.879 47.6612H139.649C139.61 47.6612 139.572 47.6997 139.572 47.6997V47.7381L139.495 47.7765L139.457 47.8149C139.533 47.8918 139.572 47.9302 139.649 47.9302L139.764 48.0455ZM140.417 48.0071L141.109 47.8918L140.417 47.8149V48.0071ZM139.418 48.6603C139.495 48.7372 139.61 48.7756 139.726 48.7756L139.841 48.5066H139.495L139.418 48.6603ZM140.802 48.8525H141.032C141.147 48.7756 141.186 48.6988 141.186 48.6219C141.109 48.5451 141.032 48.5451 140.917 48.5451H140.878C140.763 48.6219 140.686 48.6988 140.686 48.7372C140.686 48.8525 140.802 48.8525 140.802 48.8525ZM141.839 48.7372C141.801 48.6988 141.724 48.6988 141.609 48.6988C141.493 48.8141 141.455 48.9293 141.493 49.0062C141.647 49.0446 141.762 49.0062 141.839 48.9293V48.7372ZM135.921 49.1599C136.037 49.1599 136.075 49.1215 136.075 49.083C136.075 48.9293 136.075 48.8525 136.037 48.8525C135.96 48.9293 135.921 49.0062 135.921 49.1599ZM139.726 49.5826C139.764 49.5826 139.802 49.5826 139.841 49.5442L139.918 49.5057L139.995 49.4289L139.61 49.352C139.61 49.3905 139.649 49.4289 139.649 49.4673C139.649 49.5442 139.649 49.5826 139.726 49.5826ZM139.495 49.621V49.4289L139.034 49.5057L139.495 49.621ZM140.571 49.5442L140.533 49.6979H140.725L140.763 49.5442H140.571ZM140.071 50.159C140.071 50.159 140.033 50.159 140.033 50.1974C140.071 50.2743 140.225 50.3127 140.417 50.3127C140.533 50.2743 140.571 50.1974 140.609 50.159H140.917L140.955 50.1206V50.0822C140.955 50.0437 140.994 50.0437 140.994 50.0053L140.648 49.9285C140.609 49.9669 140.609 50.0053 140.609 50.0437H140.571L140.533 50.0053H140.379C140.302 50.0053 140.225 50.0053 140.187 50.0822C140.11 50.1206 140.11 50.159 140.11 50.159H140.071ZM142.108 50.0437L141.839 50.1974C141.878 50.2359 141.878 50.2359 141.916 50.2359V50.2743H141.993C142.031 50.3127 142.031 50.3127 142.07 50.3127C142.262 50.3127 142.377 50.2359 142.377 50.0822L142.108 50.0437ZM139.649 50.1974L139.264 50.0822L139.111 50.1974C139.188 50.2743 139.264 50.3127 139.38 50.3127C139.418 50.3127 139.418 50.3127 139.457 50.2743C139.495 50.2359 139.533 50.2359 139.533 50.2359C139.533 50.2359 139.572 50.2359 139.649 50.1974ZM141.109 50.0822V50.1974H141.34V50.0822H141.109ZM139.995 50.3896C139.956 50.428 139.918 50.4664 139.918 50.5049L140.34 50.5433V50.3896L140.033 50.3127C140.033 50.3896 140.033 50.3896 139.995 50.3896ZM141.724 50.3896L141.685 50.3512V50.3127H141.416V50.5433L141.724 50.5049V50.3896ZM140.763 50.8507H141.032L140.955 50.5817C140.725 50.6586 140.609 50.7354 140.533 50.8123C140.571 50.8507 140.648 50.8507 140.763 50.8507ZM139.034 50.7354V50.8507H139.38V50.7354H139.034ZM141.032 51.0813H140.802V51.1966H141.032V51.0813ZM141.685 51.4271C141.839 51.3503 141.839 51.2734 141.685 51.1966L141.647 51.235H141.532C141.532 51.3118 141.57 51.3503 141.609 51.3503L141.685 51.4271ZM139.264 51.5424C139.341 51.6193 139.38 51.6193 139.341 51.6577H139.572C139.649 51.6193 139.687 51.5808 139.687 51.5424H139.726C139.764 51.4656 139.802 51.4656 139.802 51.4656C139.764 51.4656 139.726 51.4656 139.726 51.4271H139.533C139.418 51.3887 139.341 51.3887 139.226 51.3118C139.226 51.3887 139.226 51.3887 139.188 51.4271C139.149 51.4656 139.188 51.504 139.188 51.504L139.226 51.5424H139.264ZM141.34 51.8114C141.416 51.8498 141.493 51.8883 141.647 51.8883C141.762 51.8883 141.801 51.8883 141.839 51.8498H141.878V51.5424C141.839 51.5424 141.762 51.5424 141.685 51.4656C141.609 51.504 141.532 51.504 141.493 51.5424L141.455 51.4656L141.34 51.504C141.301 51.5424 141.301 51.6577 141.34 51.8114ZM135.844 52.042L135.883 51.8114L135.729 51.9267L135.844 52.042ZM141.263 51.8498L141.147 52.0035L141.263 52.0804L141.416 51.8883L141.263 51.8498ZM140.34 52.1572V52.311C140.571 52.311 140.878 52.1957 140.955 52.0035C140.686 51.9651 140.456 52.0035 140.34 52.1572ZM140.609 52.3494C140.533 52.4647 140.533 52.5415 140.609 52.58L140.571 52.6952L140.609 52.7337V52.8105C140.648 52.8105 140.686 52.8105 140.802 52.8489L140.917 52.4262C140.84 52.3878 140.725 52.3494 140.609 52.3494ZM141.109 52.8105H141.186C141.224 52.8489 141.263 52.8489 141.378 52.8489L141.493 52.8874H141.57C141.762 52.8874 141.762 52.8489 141.801 52.6952H141.455C141.34 52.6952 141.263 52.6568 141.186 52.6184L141.109 52.8105ZM139.841 52.9258V52.7721H139.495V52.9258H139.841ZM142.031 53.1179H141.724C141.532 53.1179 141.34 53.3869 141.263 53.4638L141.57 53.5406C141.801 53.4638 141.954 53.3101 142.031 53.1179ZM141.186 53.4638V53.2332H140.878C140.84 53.3101 140.802 53.3101 140.802 53.3101L140.725 53.4638C140.648 53.5022 140.609 53.5406 140.571 53.6175V53.7712C140.725 53.7712 140.802 53.7712 140.802 53.8096C140.802 53.8481 140.802 53.8865 140.763 53.9633C140.763 54.0402 140.763 54.1171 140.802 54.1555L141.032 54.0786L141.147 53.9633L141.186 53.5406C141.071 53.5406 140.994 53.5022 140.994 53.5022C141.071 53.5022 141.147 53.5022 141.186 53.4638ZM141.455 53.9249C141.57 53.9249 141.685 53.8481 141.801 53.7712C141.724 53.6943 141.57 53.6943 141.378 53.6943L141.455 53.9249ZM142.031 53.9249V53.8481H141.762L141.647 54.0786H141.954C142.031 54.0018 142.031 54.0018 142.031 53.9249ZM162.543 29.5619C163.004 29.5619 163.311 29.9846 163.311 30.4073C162.927 34.3653 162.658 38.3233 162.581 42.3198C162.543 42.8962 162.543 43.4726 162.543 44.049C162.543 44.6255 162.504 45.2019 162.504 45.7783H162.312C162.197 45.7783 162.082 45.7783 162.043 45.8167C162.005 45.8551 161.813 45.8551 161.544 45.8551L161.621 45.932L161.544 46.0088H161.621C161.659 46.0088 161.697 46.0088 161.774 45.9704C161.851 46.0088 161.966 46.0088 162.159 46.0088H162.428C162.466 46.0088 162.504 46.0088 162.504 46.0473V46.1241H162.312L162.389 46.1626L162.312 46.2394H162.504C162.466 49.1599 162.466 52.0804 162.466 54.9625C162.466 55.5004 162.197 55.7694 161.697 55.7694L156.625 55.8847C156.241 55.8847 156.01 55.731 155.856 55.3852L155.28 53.7712H155.318V53.7328H155.242L152.206 45.663C152.36 45.5861 152.513 45.5093 152.667 45.394L152.475 45.4324L152.398 45.394C152.36 45.394 152.283 45.4324 152.206 45.4324C152.167 45.4324 152.129 45.4709 152.129 45.4709L150.669 41.6281L150.4 55.2314C150.361 55.731 150.092 56 149.593 56H144.405C143.944 56 143.637 55.6542 143.637 55.193C143.713 53.3101 143.829 51.3887 143.944 49.5057C144.136 45.7014 144.29 42.3967 144.636 38.3233L145.327 30.292C145.366 29.8309 145.596 29.6003 146.096 29.5619L149.785 29.4466C151.514 29.3313 152.667 30.4841 153.32 31.9828L153.359 32.0212L156.548 40.36L157.163 30.1767C157.163 29.6771 157.432 29.4466 157.97 29.4466L162.543 29.5619ZM148.478 34.9417C148.402 34.9417 148.363 34.9801 148.325 35.057L148.555 35.1723C148.555 35.057 148.517 34.9801 148.478 34.9417ZM147.787 36.8247V36.94H148.017V36.8247H147.787ZM148.632 37.1321C148.747 37.0552 148.786 36.9784 148.786 36.8631H148.555V37.0168C148.594 37.0552 148.632 37.0937 148.632 37.1321ZM150.438 37.0937C150.4 37.0552 150.323 36.94 150.169 36.8631C150.169 36.9784 150.208 37.0937 150.246 37.1705C150.323 37.1321 150.361 37.1321 150.361 37.1321C150.361 37.1321 150.4 37.0937 150.438 37.0937ZM149.554 37.3627C149.631 37.3627 149.746 37.3242 149.862 37.2474L149.9 37.1705H149.209V37.0552H148.901V37.2089H149.209V37.1705L149.285 37.2474C149.362 37.2858 149.401 37.3242 149.439 37.3242C149.439 37.3627 149.478 37.3627 149.554 37.3627ZM149.9 37.2089V37.3242L150.131 37.4011L150.208 37.2858L149.9 37.2089ZM150.4 37.4395C150.515 37.4395 150.63 37.4011 150.707 37.3242C150.592 37.2474 150.515 37.2089 150.438 37.2089C150.4 37.2474 150.361 37.2858 150.4 37.3242V37.4395ZM149.132 37.4779C149.209 37.5932 149.324 37.6316 149.478 37.5548C149.362 37.4779 149.247 37.4779 149.132 37.4779ZM148.863 39.6683V39.5146H148.555V39.6683H148.863ZM150.592 39.8604H150.208V40.0142H150.592V39.8604ZM150.669 41.2438C150.822 41.0901 150.784 40.9748 150.477 40.8596C150.515 41.0133 150.553 41.167 150.669 41.2438ZM153.474 40.9364C153.474 41.167 153.474 41.2438 153.09 41.2438L153.167 41.3591L153.666 41.0133L153.474 40.9364ZM149.977 41.0133V41.2438H150.246V41.0133H149.977ZM152.705 41.3207V41.5513H152.898V41.3207H152.705ZM149.285 41.436C149.478 41.705 149.631 41.6281 149.67 41.436H149.285ZM153.397 41.6281C153.436 41.6281 153.397 41.5897 153.397 41.5513L153.32 41.4744C153.32 41.5128 153.282 41.5513 153.282 41.5897C153.282 41.6281 153.32 41.6665 153.359 41.7434H153.397V41.6281ZM150.899 41.5513C151.13 41.6281 151.322 41.6281 151.437 41.5513H150.899ZM150.438 42.0124V41.8587H150.054V42.0124H150.438ZM148.402 42.2429H148.863C148.863 42.1661 148.824 42.0892 148.786 42.0124V41.9355C148.632 41.9355 148.478 41.974 148.402 42.0508V42.2429ZM153.705 42.0892H153.551V42.2429H153.705V42.0892ZM153.051 42.4735V42.5888H153.32V42.4735H153.051ZM156.702 42.4735L156.663 42.5504L156.702 42.5888L156.779 42.4735H156.702ZM148.402 42.8194L148.632 42.8962C148.824 42.7809 148.747 42.6657 148.402 42.5888V42.8194ZM148.863 42.7809V42.9346H149.132V42.7809H148.863ZM153.32 43.2421L153.397 43.2805L153.666 43.2421C153.628 43.1268 153.589 42.9731 153.589 42.7809C153.551 42.8578 153.512 42.8578 153.512 42.8962L153.397 43.0115C153.32 43.0499 153.282 43.0499 153.282 43.0499C153.282 43.0499 153.282 43.0884 153.243 43.1268C153.282 43.1652 153.32 43.2036 153.32 43.2421ZM152.167 43.5495V43.4342C152.129 43.4342 152.129 43.3958 152.129 43.3958C152.052 43.3958 152.014 43.3573 151.975 43.3189C151.937 43.3189 151.898 43.3958 151.898 43.4726V43.5495H152.167ZM148.671 43.4726C148.555 43.5495 148.478 43.6263 148.478 43.7416H148.863L148.671 43.4726ZM158.739 43.5879V43.4726H158.662V43.5879H158.739ZM149.862 44.1259V43.8185H149.631V44.1259H149.862ZM148.171 44.1259V43.8569H147.864V44.1259H148.171ZM154.089 44.4717H153.743C153.743 44.587 153.858 44.7023 154.089 44.7023V44.4717ZM155.011 44.9713C154.781 44.856 154.588 44.7792 154.473 44.7792C154.473 44.9329 154.588 45.0097 154.781 45.0482C154.819 45.0097 154.857 45.0097 154.896 45.0097L155.011 44.9713ZM153.551 44.9713L153.436 45.1634L153.628 45.2403L153.781 45.0097L153.551 44.9713ZM154.243 45.0866L154.166 44.9713L153.743 45.0866L153.781 45.2019L154.243 45.0866ZM157.739 44.9713L157.624 45.0866L157.778 45.1634L157.893 45.0097L157.739 44.9713ZM154.742 45.2019L154.781 45.3171L155.088 45.2787L155.049 45.125L154.742 45.2019ZM147.326 45.5093C147.479 45.5093 147.633 45.4709 147.71 45.4324L147.633 45.2019C147.402 45.3171 147.326 45.394 147.326 45.5093ZM153.243 45.4709L153.32 45.394C153.243 45.3171 153.167 45.2403 153.051 45.2019C153.013 45.2787 152.936 45.3171 152.782 45.3556C152.821 45.394 152.859 45.394 152.898 45.394C152.936 45.394 152.936 45.4324 152.974 45.4324C153.09 45.4709 153.128 45.5093 153.128 45.5093C153.128 45.5093 153.167 45.5093 153.243 45.4709ZM148.478 45.5093L148.402 45.3556L148.171 45.4709V45.6246L148.478 45.5093ZM147.787 45.663L147.864 46.0088H148.632C148.286 45.8167 148.171 45.7783 148.286 45.8167L148.171 45.7399C148.017 45.7014 147.902 45.7014 147.787 45.663ZM153.628 46.3163C153.666 46.3163 153.743 46.3547 153.82 46.3931C153.781 46.2394 153.705 46.1626 153.589 46.1626C153.551 46.201 153.551 46.2394 153.589 46.2778C153.589 46.2778 153.589 46.3163 153.628 46.3163ZM157.663 46.3931L157.624 46.3547C157.663 46.47 157.701 46.5468 157.778 46.5853C157.855 46.5468 157.855 46.5084 157.816 46.3931H157.663ZM153.781 46.4315V46.6621C153.781 46.6621 153.82 46.6621 153.858 46.6237H153.897C153.935 46.6237 153.974 46.5853 154.012 46.5468H154.05L154.089 46.5084C153.935 46.47 153.858 46.4315 153.781 46.4315ZM155.28 46.5084V46.739H155.472L155.395 46.47L155.28 46.5084ZM148.478 46.5084V46.7005H148.863V46.5084H148.478ZM154.396 47.008L154.204 46.9695L154.127 47.0848L154.319 47.1617L154.396 47.008ZM148.94 47.3154V47.0464H148.709V47.3154H148.94ZM153.666 47.3154C153.551 47.3154 153.474 47.4307 153.589 47.4691C153.628 47.4691 153.705 47.4691 153.82 47.4307L153.666 47.3154ZM155.28 47.6612C155.242 47.6997 155.242 47.6997 155.165 47.6997H155.088C155.088 47.7765 155.165 47.8534 155.242 47.9686C155.28 48.0455 155.357 48.1224 155.395 48.1608C155.472 48.1224 155.549 48.0839 155.626 48.0071C155.703 47.9302 155.818 47.8918 155.933 47.7765C155.818 47.8149 155.741 47.8149 155.703 47.8149H155.626C155.587 47.8534 155.549 47.8534 155.549 47.8534L155.472 47.8918C155.434 47.8534 155.395 47.8149 155.395 47.7765C155.395 47.7381 155.395 47.6997 155.318 47.6612H155.28ZM153.974 47.7381L154.05 47.8918L154.319 47.8149L154.243 47.6997L153.974 47.7381ZM148.478 48.0455V47.9302C148.325 47.9302 148.248 47.9302 148.248 47.9686C148.171 48.0071 148.171 48.0455 148.171 48.0839L148.402 48.2376C148.44 48.1608 148.478 48.0839 148.478 48.0455ZM156.318 48.1224L156.01 48.1992H155.933C155.933 48.1992 155.856 48.1992 155.818 48.2376C155.818 48.2376 155.856 48.1992 155.856 48.1608H155.549C155.511 48.1992 155.472 48.1992 155.395 48.1992C155.434 48.3145 155.472 48.3529 155.549 48.3529L155.626 48.4298C155.664 48.3914 155.703 48.3914 155.741 48.3145H156.087L156.394 48.2376L156.318 48.1224ZM156.663 48.2376L156.471 48.3145L156.625 48.5451L156.779 48.4682L156.663 48.2376ZM153.705 48.4298C153.781 48.4682 153.897 48.4682 154.05 48.4298C153.974 48.3145 153.858 48.2761 153.705 48.2761V48.4298ZM150.361 48.7756V48.5451H150.092V48.7756H150.361ZM155.626 48.8141C155.818 48.9293 156.01 48.9293 156.164 48.8909V48.7756C156.164 48.6988 156.087 48.6219 155.933 48.5835L155.626 48.6603V48.8141ZM154.435 48.6603V48.8525H154.588V48.6603H154.435ZM155.088 49.0062L155.395 48.9293C155.318 48.8141 155.318 48.8525 155.088 48.7756L154.934 48.7372L155.088 49.0062ZM157.855 49.3136L157.624 49.4673C157.739 49.5057 157.816 49.5442 157.893 49.5442C157.97 49.5057 157.97 49.3905 157.855 49.3136ZM156.087 49.4289L155.933 49.4673L156.164 50.0053L156.318 49.9669L156.087 49.4289ZM154.704 49.6595V49.4673H154.435V49.6595H154.704ZM154.665 50.0053C154.627 49.9669 154.627 49.8516 154.704 49.7363L154.319 49.8516C154.319 49.9285 154.396 49.9285 154.473 49.9285C154.473 49.9669 154.512 49.9669 154.55 49.9669C154.55 49.9669 154.588 49.9669 154.665 50.0053ZM157.201 50.6201C157.278 50.7354 157.432 50.697 157.663 50.6201C157.355 50.4664 157.201 50.3512 157.163 50.2359V50.0437C157.163 50.0437 157.163 50.0053 157.201 50.0053L157.163 49.9669C157.048 50.0053 156.971 50.0437 156.932 50.0437C156.894 50.0822 156.856 50.0822 156.74 50.1206L156.663 50.1974L156.548 50.2743C156.625 50.2743 156.702 50.3127 156.817 50.3127C156.856 50.3127 156.932 50.3127 157.048 50.3512C157.086 50.4664 157.125 50.5433 157.201 50.6201ZM155.78 50.4664C155.933 50.3127 155.856 50.2359 155.626 50.1206L155.78 50.4664ZM156.394 51.0429C156.587 51.0044 156.702 50.966 156.74 50.9276C156.74 50.9276 156.779 50.9276 156.856 50.8507L156.932 50.7739L157.009 50.7354L156.894 50.4664H156.74C156.702 50.4664 156.625 50.428 156.548 50.3896C156.548 50.4664 156.587 50.5433 156.625 50.6201C156.625 50.6201 156.625 50.6586 156.663 50.6586V50.7354C156.702 50.7739 156.702 50.8123 156.663 50.8507C156.663 50.8891 156.548 50.9276 156.394 51.0429ZM148.478 50.7354V50.4664H148.248V50.7354H148.478ZM155.357 51.1966H155.395V51.235C155.511 51.2734 155.549 51.3118 155.549 51.3118L156.394 50.8507C156.202 50.9276 156.049 50.9276 155.972 50.9276C155.933 50.966 155.856 51.0044 155.703 51.0044C155.549 51.0429 155.395 51.0813 155.28 51.1581C155.318 51.1966 155.357 51.1966 155.357 51.1966ZM158.354 50.8507C158.354 51.0813 158.354 51.1197 157.97 51.1197L158.047 51.2734L158.546 50.8891L158.354 50.8507ZM148.555 51.1581C148.786 51.0813 148.901 51.0044 148.94 50.966C148.863 50.9276 148.747 50.8891 148.555 50.8891V51.1581ZM157.932 51.6193H157.739L157.701 51.8114L157.893 51.8498L157.932 51.6193ZM149.401 51.9267V51.6961H149.016V51.9267H149.401ZM156.894 52.1188L157.24 52.042L156.971 51.773L156.74 52.0035C156.779 52.042 156.817 52.042 156.817 52.042C156.856 52.042 156.894 52.1188 156.894 52.1188ZM157.432 52.0035C157.355 52.1188 157.394 52.1572 157.47 52.1572C157.547 52.1572 157.586 52.1572 157.624 52.1188L157.586 52.0804C157.547 52.0804 157.509 52.0804 157.432 52.0035ZM158.047 52.3878L158.085 52.3494C158.008 52.3494 157.932 52.311 157.855 52.311C157.855 52.3494 157.778 52.3494 157.739 52.3494H157.701L157.547 52.58V52.6184H157.586L157.739 52.3878C157.855 52.3494 157.932 52.3494 158.047 52.3878ZM158.546 52.3878H158.585L158.546 52.3494C158.47 52.3878 158.393 52.4647 158.354 52.5415H158.316L158.354 52.58C158.393 52.5031 158.431 52.4262 158.546 52.3878ZM156.01 53.0411C156.01 53.0411 156.087 53.0027 156.164 52.8874L155.78 52.9642H155.703C155.703 52.9642 155.626 53.0027 155.549 53.0027C155.626 53.0795 155.626 53.1948 155.549 53.2716C155.703 53.2716 155.818 53.2332 155.856 53.1564C156.049 53.0411 156.087 53.0027 156.01 53.0411Z" fill="white"/>
</svg>
