<svg width="698" height="545" viewBox="0 0 698 545" fill="none" xmlns="http://www.w3.org/2000/svg">
<path d="M25.8113 534.85C25.8113 534.85 110.558 450.209 158.443 421.915C217.268 387.157 327.486 342.536 338.801 334.875C350.117 327.214 358.525 320.455 358.056 316.089M574.166 108C574.166 108 522.676 149.158 521.962 175.803M358.056 316.089C356.436 301.004 349.331 283.396 337.057 289.643C324.784 295.889 343.583 314.706 358.056 316.089ZM358.056 316.089C363.382 316.598 402.06 300.143 419.985 274.161C437.911 248.179 438.436 233.917 454.035 208.894C474.391 176.241 501.101 167.811 521.962 175.803M521.962 175.803C521.876 178.999 520.976 185.775 523.486 190.242C528.525 199.208 534.273 196.348 536.076 195.127C537.879 193.906 540.526 187.989 535.509 182.102C532.165 178.178 525.002 176.968 521.962 175.803Z" stroke="white" stroke-width="3.77836" stroke-dasharray="7.56 7.56"/>
<path d="M558.5 35.5L537.752 18.1398C536.379 16.9906 537.092 14.7541 538.877 14.6122L693.576 2.31196C695.207 2.18228 696.296 3.95919 695.439 5.35304L628.179 114.769C627.404 116.029 625.577 116.041 624.785 114.791L593.143 64.8062C592.525 63.8287 592.862 62.5317 593.878 61.9792L675.446 17.6487C677.579 16.4895 676.192 13.2459 673.88 13.9869L575.498 45.5198C574.619 45.8016 574.047 46.6484 574.114 47.5691L577.595 95.5377C577.76 97.8055 580.979 98.0838 581.531 95.8779L586.804 74.7843C587.24 73.0418 589.573 72.7122 590.474 74.266L602.5 95" stroke="white" stroke-width="3.78"/>
</svg>
